<?xml version="1.0"?>
<svg xmlns="http://www.w3.org/2000/svg" id="Layer_1" enable-background="new 0 0 256 256" height="512px" viewBox="0 0 256 256" width="512px" class=""><g><path d="m23.122 110.284h54v102h-54z" fill="#89aadb" data-original="#89AADB"/><path d="m137.122 110.284h54v102h-54z" fill="#4b67b0" data-original="#4B67B0"/><path d="m77.122 110.284h60v102h-60z" fill="#6287c5" data-original="#6287C5"/><path d="m23.122 110.284h54v24h-54z" fill="#a4d4a0" data-original="#A4D4A0"/><path d="m137.122 110.284h54v24h-54z" fill="#419b46" data-original="#419B46"/><path d="m77.122 110.284h60v24h-60z" fill="#65bc49" data-original="#65BC49"/><g fill="#1c2d6b"><path d="m191.122 215.284h-168c-1.657 0-3-1.343-3-3v-102c0-1.657 1.343-3 3-3h168c1.657 0 3 1.343 3 3v102c0 1.657-1.343 3-3 3zm-165-6h162v-96h-162z" data-original="#000000"/><path d="m191.122 137.284h-168c-1.657 0-3-1.343-3-3s1.343-3 3-3h168c1.657 0 3 1.343 3 3s-1.343 3-3 3z" data-original="#000000"/><path d="m35.12 137.285c-.451 0-.909-.103-1.339-.317-1.482-.741-2.083-2.543-1.341-4.025l12-24c.741-1.481 2.542-2.081 4.025-1.342 1.482.741 2.083 2.543 1.341 4.025l-12 24c-.526 1.051-1.586 1.659-2.686 1.659z" data-original="#000000"/><path d="m57.716 137.285c-.451 0-.909-.103-1.339-.317-1.482-.741-2.083-2.543-1.341-4.025l12-24c.741-1.481 2.542-2.081 4.025-1.342 1.482.741 2.083 2.543 1.341 4.025l-12 24c-.526 1.051-1.586 1.659-2.686 1.659z" data-original="#000000"/><path d="m80.312 137.285c-.451 0-.909-.103-1.339-.317-1.482-.741-2.083-2.543-1.341-4.025l12-24c.741-1.481 2.542-2.081 4.025-1.342 1.482.741 2.083 2.543 1.341 4.025l-12 24c-.526 1.051-1.586 1.659-2.686 1.659z" data-original="#000000"/><path d="m102.908 137.285c-.451 0-.909-.103-1.339-.317-1.482-.741-2.083-2.543-1.341-4.025l12-24c.741-1.481 2.542-2.081 4.025-1.342 1.482.741 2.083 2.543 1.341 4.025l-12 24c-.526 1.051-1.586 1.659-2.686 1.659z" data-original="#000000"/><path d="m125.504 137.285c-.451 0-.909-.103-1.339-.317-1.482-.741-2.083-2.543-1.341-4.025l12-24c.741-1.481 2.543-2.081 4.025-1.342 1.482.741 2.083 2.543 1.341 4.025l-12 24c-.526 1.051-1.586 1.659-2.686 1.659z" data-original="#000000"/><path d="m148.1 137.285c-.451 0-.909-.103-1.339-.317-1.482-.741-2.083-2.543-1.341-4.025l12-24c.74-1.481 2.542-2.081 4.025-1.342 1.482.741 2.083 2.543 1.341 4.025l-12 24c-.526 1.051-1.585 1.659-2.686 1.659z" data-original="#000000"/><path d="m170.696 137.285c-.451 0-.909-.103-1.339-.317-1.482-.741-2.083-2.543-1.341-4.025l12-24c.74-1.481 2.542-2.081 4.025-1.342 1.482.741 2.083 2.543 1.341 4.025l-12 24c-.526 1.051-1.585 1.659-2.686 1.659z" data-original="#000000"/></g><path d="m19.07 79.85h53.616v24h-53.616z" fill="#a4d4a0" transform="matrix(.966 -.259 .259 .966 -22.209 15.004)" data-original="#A4D4A0"/><path d="m129.557 50.245h53.616v24h-53.616z" fill="#419b46" transform="matrix(.966 -.259 .259 .966 -10.782 42.591)" data-original="#419B46"/><path d="m70.737 65.048h60.769v24h-60.769z" fill="#65bc49" transform="matrix(.966 -.259 .259 .966 -16.496 28.798)" data-original="#65BC49"/><path d="m23.088 113.381c-1.325 0-2.537-.884-2.896-2.225l-6.212-23.182c-.206-.769-.098-1.587.3-2.276s1.053-1.191 1.822-1.397l162.276-43.481c.769-.204 1.587-.098 2.276.3.689.397 1.192 1.053 1.398 1.821l6.211 23.183c.429 1.601-.521 3.245-2.122 3.674l-162.275 43.479c-.26.071-.521.104-.778.104zm-2.536-24.063 4.659 17.388 156.48-41.929-4.659-17.388z" fill="#1c2d6b" data-original="#1C2D6B" class=""/><path d="m32.957 110.737c-.199 0-.401-.021-.604-.062-1.623-.332-2.67-1.918-2.337-3.541l5.379-26.288c.332-1.623 1.913-2.669 3.541-2.338 1.623.332 2.67 1.918 2.337 3.541l-5.379 26.288c-.292 1.421-1.542 2.4-2.937 2.4z" fill="#1c2d6b" data-original="#1C2D6B" class=""/><path d="m54.783 104.89c-.199 0-.401-.021-.604-.062-1.623-.332-2.67-1.918-2.337-3.541l5.379-26.288c.332-1.623 1.912-2.668 3.541-2.338 1.623.332 2.67 1.918 2.337 3.541l-5.379 26.288c-.292 1.42-1.542 2.4-2.937 2.4z" fill="#1c2d6b" data-original="#1C2D6B" class=""/><path d="m76.609 99.041c-.199 0-.401-.021-.604-.062-1.623-.332-2.67-1.918-2.337-3.541l5.379-26.288c.332-1.623 1.912-2.667 3.541-2.338 1.623.332 2.67 1.918 2.337 3.541l-5.379 26.288c-.292 1.421-1.542 2.4-2.937 2.4z" fill="#1c2d6b" data-original="#1C2D6B" class=""/><path d="m98.435 93.192c-.199 0-.401-.021-.604-.062-1.623-.332-2.67-1.918-2.337-3.541l5.379-26.288c.332-1.623 1.912-2.67 3.541-2.338 1.623.332 2.67 1.918 2.337 3.541l-5.379 26.288c-.291 1.421-1.541 2.4-2.937 2.4z" fill="#1c2d6b" data-original="#1C2D6B" class=""/><path d="m120.261 87.345c-.199 0-.401-.021-.604-.062-1.623-.332-2.67-1.918-2.337-3.541l5.379-26.288c.332-1.623 1.911-2.669 3.541-2.338 1.623.332 2.67 1.918 2.337 3.541l-5.379 26.288c-.291 1.42-1.541 2.4-2.937 2.4z" fill="#1c2d6b" data-original="#1C2D6B" class=""/><path d="m142.087 81.496c-.199 0-.401-.021-.604-.062-1.623-.332-2.67-1.918-2.337-3.541l5.379-26.288c.332-1.623 1.911-2.668 3.541-2.338 1.623.332 2.67 1.918 2.337 3.541l-5.379 26.288c-.291 1.421-1.541 2.4-2.937 2.4z" fill="#1c2d6b" data-original="#1C2D6B" class=""/><path d="m163.914 75.647c-.199 0-.401-.021-.604-.062-1.623-.332-2.67-1.918-2.337-3.541l5.379-26.288c.332-1.623 1.915-2.667 3.541-2.338 1.623.332 2.67 1.918 2.337 3.541l-5.379 26.288c-.292 1.421-1.542 2.4-2.937 2.4z" fill="#1c2d6b" data-original="#1C2D6B" class=""/><path d="m203.122 107.284-8.572 105h5.661l13.125-105z" fill="#ef7f72" data-original="#EF7F72"/><path d="m224.527 107.284-21.405 105h7.998l21.002-105z" fill="#e8383b" data-original="#E8383B" class=""/><path d="m213.336 107.284-13.125 105h2.911l21.405-105z" fill="#e95947" data-original="#E95947"/><path d="m163.122 107.284 8.571 105h7.919l-2.632-105z" fill="#89aadb" data-original="#89AADB"/><path d="m189.264 107.284-2.633 105h7.919l8.572-105z" fill="#4b67b0" data-original="#4B67B0"/><path d="m176.98 107.284 2.632 105h7.019l2.633-105z" fill="#6287c5" data-original="#6287C5"/><path d="m163.122 107.284 8.572 105h-5.662l-13.124-105z" fill="#ef7f72" data-original="#EF7F72"/><path d="m141.717 107.284 21.405 105h-7.999l-21.001-105z" fill="#e8383b" data-original="#E8383B" class=""/><path d="m152.908 107.284 13.124 105h-2.91l-21.405-105z" fill="#e95947" data-original="#E95947"/><path d="m211.121 215.284h-55.999c-1.43 0-2.661-1.01-2.942-2.412l-21-105c-.176-.881.052-1.795.622-2.49.57-.694 1.421-1.098 2.32-1.098h98c.899 0 1.75.403 2.32 1.098s.798 1.609.622 2.491l-21.001 105c-.281 1.401-1.512 2.411-2.942 2.411zm-53.539-6h51.08l19.801-99h-90.681z" fill="#1c2d6b" data-original="#1C2D6B" class=""/><path d="m163.122 93.286c0-7.733 2.239-14.002 5.001-14.002h2.499c0-7.733 2.239-14.002 5.001-14.002 1.38 0 2.499-3.133 2.499-6.998 0-7.732 2.239-14 5-14-7.732 0-14 6.268-14 14 0 3.865-3.133 6.998-6.998 6.998-7.733 0-14.002 6.269-14.002 14.002h-6.998c-7.733 0-14.002 6.269-14.002 14.002 0 7.731 6.267 13.998 13.998 13.998h27.001c-2.761 0-4.999-6.267-4.999-13.998z" fill="#ede49d" data-original="#EDE49D"/><path d="m225.12 79.284h-6.998c0-7.733-6.269-14.002-14.002-14.002-3.865 0-6.998-3.133-6.998-6.998 0-7.732-6.268-14-14-14 2.761 0 5 6.268 5 14 0 3.865 1.119 6.998 2.499 6.998 2.762 0 5.001 6.269 5.001 14.002h2.499c2.762 0 5.001 6.269 5.001 14.002 0 7.731-2.238 13.998-4.999 13.998h27.001c7.731 0 13.998-6.267 13.998-13.998 0-7.733-6.269-14.002-14.002-14.002z" fill="#d3ba2a" data-original="#D3BA2A" class=""/><path d="m203.122 93.286c0-7.733-2.239-14.002-5.001-14.002h-2.499c0-7.733-2.239-14.002-5.001-14.002-1.38 0-2.499-3.133-2.499-6.998 0-7.732-2.239-14-5-14s-5 6.268-5 14c0 3.865-1.119 6.998-2.499 6.998-2.762 0-5.001 6.269-5.001 14.002h-2.499c-2.762 0-5.001 6.269-5.001 14.002 0 7.731 2.238 13.998 4.999 13.998h30.001c2.762 0 5-6.267 5-13.998z" fill="#eee045" data-original="#EEE045" class="active-path"/><path d="m225.124 110.284h-84.004c-9.373 0-16.998-7.625-16.998-16.998 0-9.375 7.627-17.002 17.001-17.002h4.264c1.42-7.949 8.385-14.002 16.736-14.002 2.205 0 3.999-1.794 3.999-3.998 0-9.374 7.626-17 17-17s17 7.626 17 17c0 2.204 1.793 3.998 3.998 3.998 8.352 0 15.316 6.053 16.737 14.002h4.263c9.375 0 17.002 7.627 17.002 17.002 0 9.373-7.625 16.998-16.998 16.998zm-84-28c-6.066 0-11.001 4.936-11.001 11.002 0 6.064 4.934 10.998 10.998 10.998h84.003c6.064 0 10.999-4.934 10.999-10.998 0-6.066-4.936-11.002-11.002-11.002h-6.998c-1.657 0-3-1.343-3-3 0-6.066-4.936-11.002-11.002-11.002-5.513 0-9.998-4.485-9.998-9.998 0-6.065-4.935-11-11-11s-11 4.935-11 11c0 5.513-4.485 9.998-9.999 9.998-6.066 0-11.001 4.936-11.001 11.002 0 1.657-1.343 3-3 3zm79.998-3h.01z" fill="#1c2d6b" data-original="#1C2D6B" class=""/><path d="m171.69 215.284c-1.546 0-2.858-1.188-2.987-2.756l-8.571-105c-.135-1.651 1.095-3.1 2.746-3.234 1.648-.143 3.099 1.095 3.234 2.746l8.571 105c.135 1.651-1.095 3.1-2.746 3.234-.083.007-.165.01-.247.01z" fill="#1c2d6b" data-original="#1C2D6B" class=""/><path d="m194.553 215.284c-.082 0-.165-.003-.248-.01-1.651-.135-2.881-1.583-2.746-3.234l8.572-105c.135-1.651 1.585-2.89 3.234-2.746 1.651.135 2.881 1.583 2.746 3.234l-8.572 105c-.127 1.569-1.44 2.756-2.986 2.756z" fill="#1c2d6b" data-original="#1C2D6B" class=""/></g> </svg>
